<?xml version="1.0" standalone="no"?>
<!DOCTYPE svg PUBLIC "-//W3C//DTD SVG 20010904//EN"
 "http://www.w3.org/TR/2001/REC-SVG-20010904/DTD/svg10.dtd">
<svg version="1.0" xmlns="http://www.w3.org/2000/svg"
 width="2000.000000pt" height="2000.000000pt" viewBox="0 0 2000.000000 2000.000000"
 preserveAspectRatio="xMidYMid meet">
<metadata>
Created by potrace 1.14, written by Peter Selinger 2001-2017
</metadata>
<g transform="translate(0.000000,2000.000000) scale(0.100000,-0.100000)"
fill="#000000" stroke="none">
<path d="M7683 13284 c-17 -12 -18 -88 -18 -1434 0 -1351 1 -1422 18 -1435 14
-10 446 -13 2322 -13 2066 0 2306 2 2317 16 10 12 13 248 14 1178 l0 1163
-270 269 -271 270 -2047 0 c-1654 -1 -2051 -3 -2065 -14z m4038 -93 c3 0 6
-107 6 -237 0 -190 3 -238 14 -250 12 -11 63 -14 254 -16 l240 -3 0 -1080 c1
-594 0 -1085 -2 -1091 -3 -7 -671 -10 -2236 -10 l-2232 1 0 1340 c0 737 2
1342 6 1345 6 4 3930 5 3950 1z m273 -237 c86 -86 156 -158 156 -160 0 -2 -72
-4 -160 -4 l-160 0 0 160 c0 88 2 160 4 160 3 0 75 -70 160 -156z"/>
<path d="M10956 12709 c-184 -62 -306 -229 -306 -418 0 -160 73 -291 208 -378
258 -166 604 -18 667 284 47 227 -87 450 -311 516 -72 21 -188 19 -258 -4z
m269 -108 c222 -98 280 -384 112 -552 -171 -170 -452 -122 -554 96 -38 81 -40
204 -4 279 44 93 131 166 231 195 51 15 162 5 215 -18z"/>
<path d="M8096 12655 c-28 -14 -34 -65 -10 -82 14 -10 194 -13 911 -13 l893 0
14 23 c20 30 10 66 -21 73 -43 11 -1765 10 -1787 -1z"/>
<path d="M8100 12148 c-50 -19 -42 -83 12 -92 18 -3 426 -5 906 -3 853 2 874
2 888 21 14 20 11 52 -7 71 -11 11 -1769 14 -1799 3z"/>
<path d="M10997 11774 c-1 -1 -33 -5 -72 -9 -448 -45 -706 -267 -731 -630 -9
-123 -111 -110 892 -110 989 0 908 -8 906 86 -5 274 -171 493 -448 594 -80 29
-242 61 -329 65 -75 3 -216 5 -218 4z m338 -118 c74 -12 209 -58 280 -94 118
-62 223 -189 254 -307 16 -62 23 -125 14 -126 -11 -1 -1520 -1 -1559 0 l-32 1
14 72 c35 186 159 328 344 397 68 25 160 49 220 57 25 3 47 8 49 10 6 5 373
-3 416 -10z"/>
<path d="M8099 11643 c-9 -2 -21 -15 -28 -29 -9 -21 -8 -28 12 -47 l22 -22
892 0 c670 0 895 3 904 12 15 15 15 61 0 76 -9 9 -234 12 -899 13 -488 0 -894
-2 -903 -3z"/>
<path d="M8089 11127 c-28 -22 -30 -47 -6 -70 l22 -22 890 2 c490 0 893 2 896
2 3 1 11 13 17 27 13 28 3 58 -23 68 -9 3 -413 6 -898 5 -678 0 -886 -2 -898
-12z"/>
<path d="M110 9890 c-53 -18 -90 -49 -90 -75 0 -29 43 -65 97 -81 50 -15 882
-16 9883 -16 8896 0 9833 2 9882 16 112 32 127 97 33 145 l-49 26 -9851 2
c-9554 1 -9852 1 -9905 -17z"/>
<path d="M120 9458 c-44 -13 -87 -43 -95 -68 -10 -30 10 -56 62 -82 l48 -23
9843 -2 c7878 -1 9852 1 9890 12 65 17 85 29 102 59 12 24 11 29 -7 54 -11 15
-41 34 -69 44 -46 16 -639 17 -9894 17 -6491 -1 -9857 -4 -9880 -11z"/>
<path d="M5763 8777 c-17 -7 -47 -26 -66 -43 -34 -30 -35 -30 -131 -26 -76 4
-107 1 -144 -13 -56 -22 -97 -61 -107 -103 -8 -39 10 -78 29 -63 21 18 92 16
121 -3 46 -30 55 -70 55 -243 l0 -157 -32 31 c-76 72 -170 98 -321 90 -310
-17 -472 -173 -507 -491 -5 -52 -18 -107 -31 -133 -20 -41 -98 -113 -123 -113
-6 0 9 -12 34 -27 88 -51 106 -78 115 -174 39 -386 221 -585 545 -594 119 -3
223 32 312 106 40 34 47 37 52 22 9 -26 62 -81 97 -99 53 -27 122 -29 168 -6
38 20 41 20 73 4 22 -11 57 -17 105 -17 66 0 74 2 102 29 34 33 47 76 31 105
-8 16 -15 19 -33 12 -55 -21 -113 3 -142 60 -19 36 -18 423 1 460 17 34 91 98
121 105 20 5 16 10 -37 45 -103 66 -97 31 -98 635 0 562 -1 567 -53 594 -31
17 -101 21 -136 7z m-72 -479 c21 -38 24 -129 23 -613 0 -491 -4 -543 -40
-580 -8 -8 -19 -15 -23 -15 -4 0 -7 281 -7 624 0 593 1 624 18 615 10 -5 23
-19 29 -31z m-305 -253 c51 -19 76 -46 106 -110 23 -49 23 -57 26 -450 4 -447
2 -464 -58 -525 -46 -47 -96 -64 -164 -56 -97 13 -163 73 -193 175 -13 45 -15
115 -15 410 0 230 4 374 12 406 33 146 144 204 286 150z m-493 -135 c3 -11 1
-39 -5 -62 -5 -24 -12 -52 -14 -63 -2 -11 -7 -31 -9 -45 -35 -164 -39 -295
-12 -415 48 -214 51 -235 26 -235 -18 0 -71 121 -99 230 -14 51 -14 51 -25
103 -5 28 -17 44 -44 62 -19 14 -31 25 -26 25 6 0 22 11 36 24 20 19 33 50 54
138 30 122 48 175 78 226 22 37 33 40 40 12z"/>
<path d="M1223 8757 c3 -7 -1 -27 -8 -45 -23 -54 -109 -61 -239 -20 -39 12
-75 23 -81 24 -180 38 -372 18 -507 -52 -291 -153 -360 -504 -153 -780 21 -27
81 -93 135 -146 104 -104 101 -99 85 -185 l-6 -32 53 24 c29 14 70 25 90 25
69 0 245 -111 346 -219 67 -71 85 -114 85 -196 -1 -115 -49 -192 -153 -246
-56 -29 -186 -35 -270 -13 -97 26 -194 104 -239 191 -52 103 -64 278 -23 347
l21 36 -22 15 c-37 26 -83 19 -126 -20 -70 -63 -101 -166 -78 -256 7 -31 5
-41 -17 -73 -58 -86 -58 -176 2 -244 22 -25 23 -81 2 -132 -18 -44 3 -64 67
-64 52 1 109 25 162 69 l31 27 66 -27 c133 -53 310 -70 468 -45 353 56 570
331 522 663 -19 136 -85 237 -269 419 l-140 138 6 47 c4 27 10 59 14 73 6 24
6 24 -19 8 -36 -24 -123 -47 -150 -40 -67 17 -256 163 -293 227 -48 82 -30
183 44 249 60 54 194 65 303 25 122 -45 211 -169 210 -293 0 -34 -5 -73 -11
-88 -9 -24 -7 -28 12 -34 99 -31 179 35 171 141 -2 28 4 54 23 89 22 41 25 57
20 108 -3 34 -12 67 -21 77 -15 16 -15 21 -1 55 23 55 11 110 -33 159 -27 29
-89 40 -79 14z m-876 -614 c75 -143 177 -241 428 -413 268 -184 358 -263 405
-356 44 -87 36 -232 -15 -274 -13 -11 -15 -3 -16 54 -1 36 -2 69 -3 74 -1 4
-6 23 -10 42 -24 102 -125 212 -311 337 -113 76 -164 92 -220 68 l-32 -13 10
40 10 39 -125 122 c-129 127 -185 204 -211 294 -17 60 -13 127 10 162 l17 26
14 -68 c7 -37 29 -98 49 -134z"/>
<path d="M2129 8712 c-39 -20 -69 -61 -89 -123 -7 -24 -14 -45 -15 -47 -1 -1
-15 5 -32 13 -56 28 -110 -12 -170 -123 -13 -25 -43 -119 -42 -130 1 -4 1 -28
0 -54 l-1 -48 -55 0 c-32 0 -70 -7 -88 -16 -32 -17 -77 -60 -77 -76 0 -10 1
-4 -9 -50 -12 -52 4 -73 43 -58 56 21 116 -2 142 -53 23 -44 23 -265 1 -317
-16 -37 -81 -110 -97 -110 -21 0 -8 -16 36 -44 72 -45 75 -55 79 -223 4 -160
18 -234 61 -313 34 -62 102 -130 162 -163 132 -72 348 -83 486 -25 178 75 282
220 254 353 -18 82 -83 110 -170 74 -27 -11 -28 -14 -28 -83 0 -75 -21 -136
-56 -168 -52 -46 -147 -56 -200 -21 -34 22 -65 85 -72 147 -3 28 -6 256 -6
506 l-1 455 135 2 c212 2 218 3 256 39 26 24 34 40 34 67 0 70 9 67 -215 67
-153 0 -204 3 -207 13 -2 6 -4 126 -4 264 1 182 -2 254 -10 257 -7 3 -27 -3
-45 -12z m-197 -607 c9 -29 12 -164 13 -475 l0 -435 -25 -49 c-14 -27 -29 -49
-34 -48 -6 1 -11 65 -12 143 -3 189 -9 224 -42 247 -15 11 -33 21 -41 24 -9 2
-1 12 23 26 20 12 41 34 48 49 7 18 12 131 14 313 1 157 3 287 4 290 2 14 41
-50 52 -85z"/>
<path d="M11512 8714 c-57 -16 -89 -38 -107 -74 -17 -33 -17 -37 -3 -64 7 -13
13 -15 21 -7 15 15 91 14 130 -3 18 -7 44 -27 59 -44 l25 -30 -2 -294 c-1
-183 -5 -302 -12 -318 -12 -29 -71 -90 -87 -90 -6 0 -19 -7 -29 -15 -18 -13
-16 -15 25 -41 52 -32 97 -79 100 -102 0 -9 2 -167 3 -351 l2 -334 -38 -38
c-43 -43 -106 -59 -161 -40 -45 16 -54 -3 -33 -70 4 -10 27 -31 53 -46 41 -24
58 -28 127 -28 58 0 88 5 106 17 24 15 29 15 85 -4 69 -23 160 -21 212 6 29
15 35 15 63 1 44 -23 119 -29 178 -15 86 20 143 90 113 138 -7 10 -15 10 -38
2 -58 -23 -155 12 -183 64 -10 19 -14 101 -13 355 0 387 -1 382 95 440 l57 34
-49 28 c-27 16 -61 44 -76 63 l-26 34 0 301 c0 295 0 302 22 332 12 17 37 38
55 45 39 16 107 18 134 4 16 -9 21 -6 26 15 25 99 -164 178 -285 118 -35 -18
-44 -19 -66 -7 -63 33 -163 35 -231 5 -36 -16 -45 -17 -61 -6 -19 13 -57 22
-119 29 -16 1 -49 -3 -72 -10z m310 -458 c14 -49 19 -847 6 -1000 -8 -97 -27
-154 -56 -164 -9 -3 -12 38 -13 180 0 272 -7 410 -19 434 -7 11 -28 31 -48 42
-21 12 -30 22 -21 22 20 0 52 27 68 57 11 21 20 207 21 417 l0 99 25 -23 c14
-13 30 -42 37 -64z"/>
<path d="M10103 8710 c-24 -10 -68 -79 -79 -125 -10 -45 -13 -46 -44 -30 -36
19 -34 19 -69 0 -39 -20 -98 -102 -122 -171 -11 -31 -21 -85 -22 -120 l-2 -64
-50 -1 c-85 -1 -117 -15 -157 -70 -34 -47 -35 -148 0 -134 37 14 81 15 114 1
52 -22 68 -70 68 -204 0 -143 -10 -174 -75 -238 -53 -51 -53 -52 -30 -62 13
-6 42 -28 64 -48 l41 -36 0 -127 c0 -162 13 -240 52 -321 56 -115 162 -198
296 -230 74 -17 201 -20 271 -5 133 28 268 120 317 218 82 162 -4 303 -144
234 -24 -11 -26 -17 -27 -87 -2 -82 -20 -129 -63 -167 -67 -60 -182 -49 -228
22 -40 60 -43 111 -44 601 l0 471 163 1 c190 0 229 10 252 65 7 18 12 42 10
53 -2 10 -4 27 -4 37 -1 16 -18 17 -211 17 l-210 0 0 265 0 265 -22 -1 c-13 0
-33 -4 -45 -9z m-193 -593 c19 -61 20 -79 23 -437 4 -379 -3 -490 -32 -549
-12 -23 -26 -41 -31 -41 -6 0 -10 52 -11 128 -1 199 -5 232 -30 258 -12 13
-30 26 -41 30 -26 8 -22 18 12 31 56 21 61 50 60 370 0 278 1 286 18 269 11
-9 25 -35 32 -59z"/>
<path d="M13540 8277 c0 -13 -6 -32 -14 -43 -19 -25 -116 -25 -201 0 -73 21
-280 21 -365 -1 -92 -24 -192 -78 -248 -133 -61 -62 -90 -118 -105 -205 -22
-132 22 -241 156 -382 48 -50 88 -100 88 -110 3 -35 2 -48 -6 -72 -5 -17 -4
-22 5 -16 22 13 159 7 210 -10 62 -21 183 -99 233 -151 68 -70 72 -151 10
-224 -48 -57 -96 -75 -203 -75 -83 0 -103 4 -155 28 -72 34 -147 110 -167 170
-21 61 -22 148 -4 192 27 65 -17 85 -98 45 -76 -36 -115 -129 -86 -205 8 -22
5 -34 -15 -69 -38 -66 -30 -136 21 -184 28 -26 30 -42 9 -81 -12 -25 -12 -31
-1 -40 38 -31 102 -19 177 34 43 31 49 32 68 19 12 -8 21 -12 21 -8 0 3 7 1
15 -6 8 -7 15 -10 15 -6 0 3 11 1 24 -4 98 -37 364 -29 481 15 123 46 237 129
288 210 62 97 68 240 17 361 -25 56 -102 139 -203 217 -88 67 -109 100 -96
156 4 19 7 36 6 38 -2 1 -21 -4 -42 -12 -59 -21 -96 -18 -151 11 -162 85 -230
200 -174 291 26 44 55 60 121 71 125 19 255 -40 295 -135 16 -38 20 -98 9
-132 -5 -16 -3 -26 6 -32 20 -12 77 -11 102 3 42 22 70 77 57 113 -5 14 1 30
17 52 29 37 33 96 10 143 -11 20 -13 39 -8 53 20 54 -36 137 -91 137 -23 0
-28 -5 -28 -23z m-765 -375 c12 -93 50 -163 128 -235 60 -56 108 -87 232 -152
270 -141 405 -273 405 -397 0 -42 -24 -99 -49 -115 -14 -9 -16 -3 -16 61 0 86
-18 128 -86 196 -49 49 -146 118 -229 161 -34 17 -61 23 -112 23 l-68 0 0 32
c0 23 -7 38 -22 49 -40 27 -158 148 -180 183 -40 66 -53 165 -26 215 12 23 18
18 23 -21z"/>
<path d="M14893 8279 c4 -14 -2 -29 -18 -45 -31 -31 -82 -31 -184 -3 -67 19
-93 21 -216 16 -150 -6 -196 -16 -300 -68 -102 -50 -193 -159 -210 -249 -29
-161 9 -269 142 -408 103 -107 107 -113 98 -168 -4 -32 -3 -44 4 -40 18 11
149 8 189 -4 110 -34 267 -150 293 -217 34 -90 -26 -192 -133 -227 -161 -54
-362 31 -424 180 -23 55 -25 163 -3 208 l18 37 -24 11 c-55 25 -144 -23 -179
-96 -19 -40 -20 -78 -5 -121 10 -28 9 -36 -9 -61 -38 -52 -34 -140 8 -182 32
-33 37 -56 18 -98 -34 -73 107 -64 194 13 16 14 24 14 87 -6 92 -29 146 -36
271 -34 127 1 217 22 326 74 197 93 295 264 255 447 -24 113 -73 179 -221 297
-100 79 -114 100 -105 160 l5 44 -41 -14 c-23 -8 -56 -15 -73 -15 -62 0 -203
95 -247 166 -30 48 -33 112 -7 153 59 92 242 100 354 15 61 -47 93 -137 73
-208 -11 -37 1 -46 56 -46 30 0 50 7 75 29 32 26 35 33 33 76 -1 34 4 55 19
75 26 35 30 87 10 130 -8 19 -15 38 -14 41 1 4 3 19 6 34 11 60 -40 125 -97
125 -25 0 -28 -3 -24 -21z m-764 -381 c1 -23 15 -70 31 -103 49 -103 148 -188
320 -275 267 -136 409 -275 412 -405 1 -48 -23 -99 -53 -116 -19 -10 -20 -9
-14 12 13 39 6 108 -14 153 -28 65 -83 120 -190 190 -110 73 -175 97 -244 91
-47 -4 -48 -4 -44 23 3 23 -10 41 -94 122 -120 116 -154 180 -146 272 3 31 8
61 12 67 13 21 21 10 24 -31z"/>
<path d="M6959 8258 c-108 -17 -183 -46 -272 -105 -157 -104 -248 -233 -281
-398 -23 -110 -57 -177 -111 -216 -42 -30 -50 -49 -21 -49 8 0 36 -21 63 -47
50 -48 50 -49 71 -158 55 -284 190 -453 428 -535 228 -79 556 -18 704 130 79
79 108 174 75 244 -24 50 -54 63 -128 57 -24 -2 -67 -49 -60 -67 3 -8 2 -35
-2 -59 -13 -92 -110 -153 -255 -162 -109 -7 -184 17 -247 78 -64 63 -85 123
-91 252 -2 59 -1 107 4 107 5 0 65 9 134 21 69 11 139 22 155 25 17 2 41 6 55
9 14 2 43 7 65 10 22 3 51 7 65 10 14 2 43 7 65 10 22 3 47 7 55 10 8 2 38 6
65 10 126 14 172 30 189 63 17 34 12 79 -12 106 -13 15 -19 39 -20 85 -11 350
-345 624 -693 569z m164 -193 c36 -25 65 -67 72 -107 6 -28 8 -408 3 -413 -2
-2 -26 -7 -53 -10 -28 -4 -52 -9 -55 -10 -3 -2 -33 -7 -65 -10 -33 -4 -63 -9
-66 -11 -4 -2 -31 -6 -60 -10 -30 -3 -58 -8 -62 -11 -4 -3 -7 82 -6 189 1 211
12 276 55 341 49 75 165 100 237 52z m-501 -268 c-33 -142 -43 -212 -43 -301
0 -82 4 -109 40 -273 24 -107 26 -136 9 -131 -35 11 -89 150 -121 306 -8 41
-19 60 -46 84 -21 19 -31 33 -23 36 38 12 53 41 81 157 32 130 52 184 84 229
l21 29 10 -22 c7 -16 4 -47 -12 -114z m737 86 c18 -45 27 -111 30 -215 2 -96
2 -98 -21 -99 -13 0 -31 -2 -40 -4 -17 -3 -18 11 -18 181 0 177 1 184 19 175
10 -6 23 -23 30 -38z"/>
<path d="M17748 8265 c-2 -1 -28 -5 -58 -8 -206 -22 -435 -193 -518 -387 -23
-55 -30 -82 -47 -177 -8 -49 -53 -119 -97 -152 l-46 -34 53 -35 c67 -44 81
-69 106 -192 54 -270 180 -435 399 -519 288 -111 689 -9 794 201 60 121 10
233 -98 220 -53 -6 -74 -32 -74 -91 -1 -82 -38 -132 -127 -173 -42 -18 -68
-22 -155 -23 -93 0 -111 3 -154 25 -63 32 -120 98 -142 163 -10 31 -18 89 -19
148 l-2 96 71 12 c106 19 117 20 166 27 25 3 52 7 60 9 8 3 33 7 55 10 40 6
203 31 260 41 17 2 67 11 112 18 45 7 93 20 107 29 42 28 44 112 3 139 -6 3
-11 35 -13 70 -5 148 -62 283 -164 388 -123 127 -239 181 -417 194 -28 2 -53
3 -55 1z m91 -190 c41 -21 79 -70 87 -112 7 -39 12 -376 6 -405 -4 -15 -14
-18 -117 -34 -11 -2 -71 -12 -133 -22 -62 -10 -114 -16 -116 -13 -8 14 3 410
13 439 20 67 59 119 103 141 50 24 117 27 157 6z m-469 -181 c0 -13 -9 -66
-21 -117 -11 -50 -24 -105 -27 -122 -3 -16 -6 -88 -6 -160 0 -108 4 -148 27
-238 43 -171 35 -215 -20 -117 -21 36 -47 110 -68 190 -25 98 -39 135 -57 150
-13 11 -27 19 -32 20 -6 0 6 15 25 33 31 28 38 44 58 132 13 55 32 123 42 150
38 101 79 142 79 79z m702 19 c31 -38 41 -82 46 -210 l5 -133 -32 0 c-17 0
-34 0 -38 0 -5 0 -8 81 -9 180 0 99 3 180 6 180 4 0 13 -8 22 -17z"/>
<path d="M19548 8255 c-1 -1 -21 -5 -43 -8 -119 -16 -237 -113 -308 -252 l-26
-50 1 95 c1 121 -6 154 -44 185 -52 44 -157 27 -212 -34 -15 -16 -22 -18 -38
-10 -36 19 -159 23 -199 6 -85 -35 -147 -124 -135 -191 6 -33 8 -35 32 -26 33
13 100 13 125 0 37 -20 48 -60 47 -178 -1 -86 -5 -121 -20 -154 -19 -44 -77
-103 -110 -114 -27 -8 -22 -18 20 -42 108 -63 110 -72 110 -337 l0 -219 -32
-32 c-28 -28 -38 -32 -77 -29 -24 1 -50 4 -58 6 -8 3 -17 -7 -21 -23 -11 -38
17 -89 60 -111 42 -22 138 -19 186 6 26 13 32 13 58 0 16 -8 55 -18 87 -20 46
-5 66 -1 98 15 40 21 40 21 95 1 131 -46 246 -2 246 93 0 40 -13 50 -46 38
-36 -14 -106 -4 -131 18 -39 37 -40 47 -38 427 2 411 2 411 76 543 87 155 174
214 255 176 34 -16 42 -28 50 -80 10 -66 -48 -147 -121 -166 l-43 -12 19 -38
c21 -40 62 -68 104 -68 26 0 32 -14 15 -40 -16 -26 17 -50 69 -50 50 0 136 35
167 68 10 10 37 23 58 26 26 5 52 20 75 43 l35 35 -26 22 c-40 33 -49 59 -47
143 1 43 -2 96 -6 118 -22 117 -113 201 -229 212 -28 2 -56 6 -63 8 -6 2 -13
2 -15 0z m-649 -353 c36 -51 47 -159 45 -433 -2 -258 -13 -331 -57 -368 -16
-12 -17 -3 -18 115 -1 207 -9 245 -54 270 -19 10 -35 21 -35 24 0 3 13 11 29
18 51 23 59 56 60 270 1 72 3 132 5 132 3 0 14 -13 25 -28z"/>
<path d="M3165 8228 c-16 -12 -35 -30 -42 -39 -11 -15 -18 -15 -75 -2 -121 28
-216 3 -274 -72 -30 -39 -48 -97 -39 -126 6 -17 12 -19 55 -13 132 17 153 -13
148 -211 -3 -154 -9 -167 -96 -224 l-52 -33 43 -29 c84 -56 106 -107 108 -258
5 -347 154 -516 447 -506 91 3 168 27 241 76 55 37 83 65 149 149 l20 24 0
-24 c0 -43 23 -114 49 -152 44 -64 142 -87 216 -49 37 19 38 19 89 -1 57 -21
137 -23 178 -2 54 26 81 84 59 125 -7 15 -14 16 -38 8 -56 -20 -110 2 -134 53
-22 49 -19 420 5 463 20 37 62 80 100 103 35 20 35 26 1 41 -46 21 -101 70
-111 99 -5 15 -9 140 -9 278 -1 277 -5 299 -63 329 -58 30 -150 8 -187 -45
-12 -16 -18 -17 -60 -6 -79 21 -163 20 -213 -2 -79 -34 -126 -102 -113 -163 5
-27 9 -30 32 -24 54 14 67 15 98 4 17 -5 40 -22 50 -37 17 -25 18 -57 20 -398
3 -402 1 -426 -51 -505 -53 -80 -170 -106 -247 -55 -89 60 -96 107 -97 672 0
254 -3 475 -6 492 -11 49 -48 75 -114 79 -47 3 -62 0 -87 -19z m-60 -344 c19
-37 20 -59 20 -374 0 -315 -1 -337 -20 -374 -11 -22 -24 -41 -30 -43 -6 -2
-11 49 -12 135 -4 209 -9 230 -60 259 l-36 21 24 12 c61 33 69 62 72 272 1 87
6 137 12 135 6 -2 19 -21 30 -43z m819 24 c35 -40 43 -116 44 -387 0 -191 -3
-275 -14 -320 -14 -61 -39 -111 -54 -111 -5 0 -9 189 -9 420 0 231 3 420 7
420 4 0 16 -10 26 -22z"/>
<path d="M8240 8231 c-19 -11 -43 -28 -54 -40 -15 -16 -23 -18 -38 -10 -38 20
-154 23 -202 5 -84 -32 -154 -144 -127 -203 9 -20 14 -22 30 -13 21 11 83 13
118 4 39 -11 51 -56 52 -198 2 -162 -8 -185 -91 -235 l-57 -33 59 -39 c89 -57
90 -61 90 -314 0 -186 -2 -221 -17 -246 -24 -40 -65 -55 -116 -42 -23 6 -45 9
-49 7 -5 -3 -8 -22 -8 -43 0 -95 118 -140 238 -89 39 16 45 16 67 2 39 -26
125 -29 176 -7 42 18 45 18 79 1 111 -57 251 37 199 133 -7 14 -14 17 -23 10
-6 -5 -24 -12 -40 -15 -22 -4 -35 1 -57 24 l-29 28 0 419 c0 389 1 422 19 471
25 68 62 116 114 149 35 23 54 27 112 28 88 0 133 -25 165 -90 33 -69 37 -130
38 -567 0 -386 -1 -408 -19 -431 -23 -30 -58 -38 -97 -21 -34 14 -42 6 -42
-42 0 -94 122 -144 225 -93 27 14 34 13 74 -4 49 -22 137 -19 173 5 18 12 28
12 72 -4 71 -24 126 -23 167 5 59 39 73 138 18 127 -63 -12 -101 -4 -129 27
l-27 30 1 231 c1 264 1 263 94 316 28 16 49 33 46 37 -3 5 -19 15 -37 24 -48
23 -87 60 -96 92 -4 15 -8 74 -9 131 -3 188 -40 300 -127 388 -66 67 -138 95
-261 101 -108 6 -174 -6 -261 -49 -66 -33 -161 -117 -194 -172 l-19 -31 0 83
c0 95 -17 143 -56 161 -37 16 -104 13 -144 -8z m759 -306 c70 -64 90 -176 85
-480 -4 -239 -7 -263 -30 -312 -41 -81 -44 -63 -45 249 -1 376 -6 441 -46 535
-22 55 -18 56 36 8z m-810 -59 c6 -17 13 -47 17 -66 9 -53 12 -443 3 -539 -7
-85 -31 -156 -55 -165 -10 -4 -13 21 -13 120 -1 145 -9 223 -25 243 -6 8 -24
22 -39 31 l-28 17 28 18 c57 37 62 61 65 272 2 127 2 132 19 117 10 -9 23 -30
28 -48z"/>
<path d="M15660 8239 c-14 -6 -37 -23 -51 -39 l-26 -28 -54 14 c-119 31 -208
9 -274 -69 -37 -43 -51 -90 -41 -132 5 -21 10 -24 26 -15 29 15 113 12 137 -5
32 -22 42 -74 39 -205 -2 -140 -16 -170 -94 -215 -28 -16 -51 -32 -52 -35 0
-3 14 -14 30 -24 84 -49 111 -106 116 -241 3 -83 13 -195 19 -215 1 -3 5 -18
10 -35 49 -181 203 -285 415 -280 149 3 279 72 374 198 20 27 36 45 37 40 9
-88 30 -144 69 -183 54 -54 130 -65 202 -30 37 18 43 18 69 4 47 -24 152 -30
192 -11 19 9 40 23 46 31 19 22 29 69 20 93 -7 19 -11 20 -41 11 -23 -7 -46
-7 -74 1 -67 18 -75 48 -74 270 0 110 5 201 12 224 13 44 67 107 111 129 l29
14 -44 28 c-66 44 -97 77 -103 110 -3 17 -7 144 -8 281 -2 272 -5 287 -63 313
-56 26 -149 4 -180 -44 -13 -19 -19 -21 -47 -12 -65 20 -175 21 -222 3 -84
-31 -140 -113 -120 -174 5 -17 11 -20 33 -14 70 20 125 1 155 -52 17 -29 18
-723 2 -785 -35 -131 -117 -196 -227 -179 -53 8 -88 31 -113 73 -41 68 -44
111 -45 608 0 262 -3 485 -6 495 -14 42 -30 66 -56 79 -31 16 -91 17 -128 3z
m-77 -356 c20 -46 22 -63 23 -357 1 -236 -1 -321 -12 -356 -14 -46 -39 -89
-47 -80 -3 3 -7 80 -10 172 -5 184 -13 211 -67 231 l-29 11 29 17 c61 37 68
70 69 292 1 75 5 117 12 117 5 0 20 -21 32 -47z m839 -7 c15 -28 22 -147 22
-376 0 -280 -11 -359 -59 -406 -13 -14 -15 28 -15 412 l0 427 21 -19 c11 -10
25 -27 31 -38z"/>
</g>
</svg>
